<svg width="30.000002" height="30.000000" viewBox="0 0 30 30" fill="none" xmlns="http://www.w3.org/2000/svg" xmlns:xlink="http://www.w3.org/1999/xlink">
  <desc>
    Created with Pixso.
  </desc>
  <defs/>
  <circle id="Ellipse 1" cx="15.000000" cy="15.000000" r="15.000000" fill="#3A3A3A" fill-opacity="1.000000"/>
  <path id="Vector" d="M15 9.87C12.16 9.87 9.87 12.16 9.87 15C9.87 17.83 12.16 20.12 15 20.12C17.83 20.12 20.12 17.83 20.12 15C20.12 12.16 17.83 9.87 15 9.87ZM15 18.33C13.16 18.33 11.66 16.83 11.66 15C11.66 13.16 13.16 11.66 15 11.66C16.84 11.66 18.33 13.16 18.33 15C18.33 16.83 16.83 18.33 15 18.33ZM21.53 9.66C21.53 10.32 20.99 10.85 20.33 10.85C19.67 10.85 19.14 10.32 19.14 9.66C19.14 9 19.67 8.46 20.33 8.46C20.99 8.46 21.53 9 21.53 9.66ZM24.92 10.87C24.85 9.27 24.48 7.85 23.31 6.68C22.14 5.51 20.72 5.15 19.12 5.07C17.47 4.97 12.52 4.97 10.87 5.07C9.27 5.14 7.85 5.51 6.68 6.68C5.51 7.85 5.15 9.26 5.07 10.87C4.97 12.52 4.97 17.47 5.07 19.12C5.14 20.72 5.51 22.14 6.68 23.31C7.85 24.48 9.27 24.84 10.87 24.92C12.52 25.02 17.47 25.02 19.12 24.92C20.72 24.85 22.14 24.48 23.31 23.31C24.48 22.14 24.84 20.72 24.92 19.12C25.02 17.47 25.02 12.52 24.92 10.87ZM22.79 20.89C22.44 21.77 21.77 22.44 20.89 22.79C19.58 23.31 16.45 23.19 15 23.19C13.54 23.19 10.42 23.31 9.1 22.79C8.23 22.44 7.55 21.77 7.2 20.89C6.68 19.57 6.8 16.45 6.8 15C6.8 13.54 6.68 10.41 7.2 9.1C7.55 8.22 8.22 7.55 9.1 7.2C10.42 6.68 13.54 6.8 15 6.8C16.45 6.8 19.58 6.68 20.89 7.2C21.77 7.55 22.44 8.22 22.79 9.1C23.31 10.42 23.19 13.54 23.19 15C23.19 16.45 23.31 19.58 22.79 20.89Z" fill="#E4E4E4" fill-opacity="1.000000" fill-rule="nonzero"/>
</svg>
