<svg width="31.000000" height="31.000000" viewBox="0 0 31 31" fill="none" xmlns="http://www.w3.org/2000/svg" xmlns:xlink="http://www.w3.org/1999/xlink">
  <desc>
    Created with Pixso.
  </desc>
  <defs/>
  <path id="Vector" d="M15.5 0C6.93 0 0 6.93 0 15.5C0 24.06 6.93 31 15.5 31C24.06 31 31 24.06 31 15.5C31 6.93 24.06 0 15.5 0ZM22.68 10.54C22.45 12.99 21.44 18.93 20.92 21.68C20.71 22.84 20.28 23.23 19.86 23.27C18.96 23.35 18.28 22.67 17.41 22.1C16.04 21.21 15.27 20.65 13.95 19.78C12.42 18.77 13.41 18.22 14.28 17.31C14.51 17.07 18.48 13.47 18.55 13.14C18.56 13.1 18.57 12.95 18.48 12.86C18.39 12.78 18.26 12.81 18.16 12.83C18.02 12.86 15.85 14.31 11.62 17.15C11 17.58 10.44 17.79 9.94 17.78C9.39 17.76 8.32 17.46 7.53 17.21C6.56 16.89 5.79 16.72 5.86 16.19C5.89 15.91 6.28 15.62 7.01 15.33C11.53 13.36 14.54 12.06 16.05 11.44C20.35 9.65 21.25 9.34 21.83 9.33C21.96 9.32 22.25 9.36 22.43 9.51C22.56 9.61 22.64 9.76 22.65 9.93C22.68 10.13 22.69 10.33 22.68 10.54Z" fill="#3A3A3A" fill-opacity="1.000000" fill-rule="nonzero"/>
</svg>
